<svg xmlns="http://www.w3.org/2000/svg" width="60" height="32" fill="none" viewBox="0 0 60 32"><path fill="#fff" d="M27.857 16c0-6.48-5.276-11.733-11.786-11.733S4.286 9.52 4.286 16 9.562 27.733 16.07 27.733V32C7.195 32 0 24.837 0 16S7.195 0 16.071 0s16.072 7.163 16.072 16-7.196 16-16.072 16v-4.267c6.51 0 11.786-5.253 11.786-11.733"/><path fill="#fff" d="M18.214 9.6v12.8h-4.286V9.6Z"/><path fill="#fff" d="M22.505 18.128H9.648v-4.267h12.857ZM55.714 16c0-6.48-5.276-11.733-11.785-11.733S32.143 9.52 32.143 16s5.276 11.733 11.786 11.733V32c-8.876 0-16.072-7.163-16.072-16S35.053 0 43.93 0 60 7.163 60 16s-7.195 16-16.071 16v-4.267c6.509 0 11.785-5.253 11.785-11.733"/><path fill="#fff" d="M50.357 18.128H37.5v-4.267h12.857Z"/></svg>