<svg width="60" height="32" viewBox="0 0 60 32" fill="none" xmlns="http://www.w3.org/2000/svg">
<path d="M27.8571 16C27.8571 9.51986 22.5805 4.26667 16.0714 4.26667C9.56236 4.26667 4.28571 9.51986 4.28571 16C4.28571 22.4801 9.56236 27.7333 16.0714 27.7333V32C7.19542 32 0 24.8366 0 16C0 7.16344 7.19542 0 16.0714 0C24.9474 0 32.1429 7.16344 32.1429 16C32.1429 24.8366 24.9474 32 16.0714 32V27.7333C22.5805 27.7333 27.8571 22.4801 27.8571 16Z" fill="white"/>
<path d="M18.2143 9.6V22.4H13.9286V9.6H18.2143Z" fill="white"/>
<path d="M22.5054 18.128H9.64822V13.8613L22.5054 13.8613V18.128Z" fill="white"/>
<path d="M55.7143 16C55.7143 9.51986 50.4376 4.26667 43.9286 4.26667C37.4195 4.26667 32.1429 9.51986 32.1429 16C32.1429 22.4801 37.4195 27.7333 43.9286 27.7333V32C35.0526 32 27.8571 24.8366 27.8571 16C27.8571 7.16344 35.0526 0 43.9286 0C52.8046 0 60 7.16344 60 16C60 24.8366 52.8046 32 43.9286 32V27.7333C50.4376 27.7333 55.7143 22.4801 55.7143 16Z" fill="white"/>
<path d="M50.3571 18.128H37.5V13.8613L50.3571 13.8613V18.128Z" fill="white"/>
</svg>
